<?xml version="1.0" encoding="utf-8"?>
<!-- Generator: Adobe Adobe Illustrator 24.2.0, SVG Export Plug-In . SVG Version: 6.00 Build 0)  -->
<svg version="1.1" id="Layer_6" xmlns="http://www.w3.org/2000/svg" xmlns:xlink="http://www.w3.org/1999/xlink" x="0px" y="0px"
	 viewBox="0 0 88 76" style="enable-background:new 0 0 88 76;" xml:space="preserve">
<style type="text/css">
	.st0{fill:#FFFFFF;}
</style>
<g>
	<g>
		<g>
			<g>
				<g>
					<path d="M67.38,34.82c-0.07-1.06-0.68-1.87-1.16-2.35c-0.67-0.66-2.97-0.61-2.97-0.61l-20.42,0.07c0,0-3.42,0.17-4.71-0.56
						c-1.55-0.88-5.43-12.72-7.26-17.95c-0.5-1.42-1.06-2.14-1.75-2.47c-1.57-0.76-6.38-0.18-6.5-0.16
						c-3.31,0.53-3.34,5.13-0.49,6.06c0.84,0.27,2.65-0.17,3.07,0.44c1.85,2.7,5.87,30.48,6.19,32.55c0.42,2.72,0.14,4.09,2.3,5.02
						c0.87,0.38,2.32,0.23,2.32,0.23l0.2,0c-0.03,0.18-0.06,0.37-0.06,0.56c0,1.93,1.57,3.5,3.5,3.5s3.5-1.57,3.5-3.5
						c0-0.2-0.03-0.39-0.06-0.58l8.9-0.03l0.92,0c0,0.04-0.01,0.07-0.01,0.1c0,1.93,1.57,3.5,3.5,3.5s3.5-1.57,3.5-3.5
						c0-0.03-0.01-0.07-0.01-0.1c0.42,0.01,1.33,0.03,1.94-0.04c0.11-0.01,2.06-0.51,2.56-2.93C64.79,50.14,67.58,37.98,67.38,34.82
						z"/>
				</g>
			</g>
			<path class="st0" d="M61.96,33.98c-1.75-0.39-3.74-0.11-5.52-0.07c-1.8,0.04-3.61,0.07-5.41,0.11
				c-3.61,0.07-7.21,0.14-10.82,0.21c-2.69,0.05-2.7,4.24,0,4.19c3.61-0.07,7.21-0.14,10.82-0.21c1.8-0.03,3.61-0.07,5.41-0.1
				c1.77-0.03,3.81,0.19,5.52-0.27C63.81,37.35,63.91,34.42,61.96,33.98z"/>
			<path class="st0" d="M41,56.89c-0.04-0.15-0.12-0.29-0.23-0.4c-0.11-0.11-0.25-0.19-0.4-0.23c-0.13-0.05-0.27-0.05-0.4-0.07
				c0.09,0.01,0.17,0.02,0.26,0.03c-0.11-0.02-0.22-0.04-0.34-0.04c-0.03,0-0.06,0-0.08,0c0,0-0.01,0-0.01,0
				c-0.06-0.01-0.12-0.03-0.18-0.05c-0.03-0.01-0.05-0.03-0.07-0.04c-0.04-0.03-0.08-0.07-0.11-0.11c-0.02-0.04-0.05-0.08-0.07-0.12
				c-0.02-0.07-0.05-0.15-0.06-0.23c0.01,0.05,0.01,0.09,0.02,0.14c-0.02-0.23-0.09-0.44-0.26-0.62c-0.16-0.16-0.41-0.27-0.64-0.26
				c-0.23,0.01-0.48,0.09-0.64,0.26c-0.16,0.18-0.27,0.4-0.26,0.64c0,0.38,0.1,0.72,0.26,1.06c0.12,0.26,0.31,0.51,0.54,0.68
				c0.29,0.23,0.61,0.42,0.98,0.51c0.18,0.04,0.37,0.07,0.56,0.07c0.34,0,0.67-0.12,0.91-0.36C41,57.54,41.09,57.2,41,56.89z"/>
			<g>
				<path class="st0" d="M57.56,56.37c-0.09-0.13-0.2-0.24-0.33-0.33c-0.11-0.07-0.22-0.1-0.34-0.11c-0.11-0.02-0.21-0.01-0.32,0.01
					c-0.04,0.01-0.08,0.01-0.13,0.02c-0.05,0.01-0.11,0-0.16,0c-0.04-0.01-0.08-0.02-0.12-0.03c-0.05-0.02-0.09-0.05-0.14-0.08
					c-0.17-0.15-0.33-0.31-0.47-0.49c-0.03-0.04-0.07-0.09-0.1-0.13c-0.14-0.19-0.29-0.34-0.53-0.41c-0.21-0.06-0.5-0.03-0.69,0.09
					c-0.19,0.12-0.36,0.31-0.41,0.53c-0.05,0.23-0.04,0.49,0.09,0.69c0.35,0.52,0.71,1.02,1.24,1.36c0.24,0.16,0.53,0.27,0.81,0.32
					c0.24,0.04,0.43,0.05,0.67,0.02c0.15-0.02,0.23-0.04,0.36-0.1c0.17-0.07,0.25-0.13,0.41-0.26c0.05-0.06,0.1-0.12,0.14-0.19
					c0.07-0.11,0.1-0.22,0.11-0.34C57.7,56.76,57.67,56.54,57.56,56.37z"/>
				<path class="st0" d="M56.49,55.96c0.01,0,0.02,0,0.03,0c0,0,0,0,0,0C56.52,55.95,56.51,55.96,56.49,55.96z"/>
				<path class="st0" d="M56.53,55.95c0.02,0,0.03,0,0.05,0c0.05-0.01,0.11-0.02,0.16-0.03C56.67,55.93,56.6,55.94,56.53,55.95z"/>
			</g>
			<path class="st0" d="M23.17,12.68c-0.08-0.14-0.2-0.26-0.34-0.34c-0.03-0.02-0.07-0.03-0.1-0.04c-0.08-0.07-0.17-0.12-0.28-0.15
				c-0.09-0.01-0.17-0.02-0.26-0.03c-0.17,0-0.34,0.04-0.49,0.13c-0.07,0.05-0.13,0.1-0.2,0.15c-0.12,0.12-0.2,0.26-0.25,0.43
				c-0.02,0.09-0.03,0.18-0.04,0.27c0,0.01,0,0.01,0,0.02s0,0.01,0,0.02c0.01,0.09,0.02,0.18,0.04,0.27c0,0.01,0,0.02,0.01,0.03
				c0.03,0.09,0.07,0.17,0.11,0.26c0,0.01,0.01,0.02,0.02,0.03c0.05,0.07,0.1,0.14,0.16,0.2c0,0,0.01,0.01,0.01,0.01
				c0,0,0.01,0.01,0.01,0.01c0.07,0.06,0.13,0.11,0.2,0.16c0.01,0.01,0.02,0.01,0.03,0.02c0.11,0.07,0.23,0.11,0.36,0.11
				c0.13,0.03,0.25,0.02,0.38-0.02c0.08-0.03,0.15-0.06,0.23-0.1c0.14-0.09,0.26-0.2,0.34-0.34c0.01-0.01,0.01-0.02,0.02-0.03
				l0.01-0.02c0,0,0-0.01,0-0.01c0.02-0.04,0.03-0.08,0.05-0.12c0.02-0.04,0.03-0.08,0.05-0.12c0-0.01,0.01-0.02,0.01-0.03
				l0.01-0.02c0,0,0,0,0-0.01c0.01-0.04,0.02-0.08,0.02-0.13c0.01-0.04,0.02-0.09,0.02-0.13C23.3,12.98,23.26,12.82,23.17,12.68z"/>
			<path class="st0" d="M31.05,17.13c-0.15-0.37-0.3-0.74-0.44-1.11c-0.32-0.82-0.58-1.67-0.94-2.47c-0.37-0.81-1.08-1.37-1.95-1.57
				c-0.87-0.2-1.74-0.05-2.61,0.1c-0.46,0.08-0.73,0.61-0.67,1.03c0.06,0.42,0.46,0.86,0.92,0.81c0.35-0.04,0.71-0.08,1.06-0.07
				c0.08,0,0.17,0.01,0.25,0.01c0.01,0,0.02,0,0.04,0c0,0,0.01,0,0.04,0.01c0.14,0.03,0.28,0.07,0.42,0.12c0.01,0,0,0,0.02,0.01
				c0.07,0.04,0.13,0.08,0.19,0.11c0.01,0.01,0.02,0.02,0.04,0.04c0.04,0.04,0.08,0.08,0.12,0.12c0.01,0.02,0.03,0.04,0.04,0.06
				c0.04,0.07,0.07,0.14,0.11,0.21c-0.11-0.2,0.01,0.04,0.03,0.09c0.03,0.07,0.05,0.15,0.08,0.22c0.23,0.7,0.45,1.4,0.65,2.11
				c0.1,0.35,0.2,0.69,0.3,1.04c0.19,0.61,0.54,1.13,1.17,1.34c0.43,0.15,0.88-0.1,1.12-0.46C31.4,18.35,31.26,17.67,31.05,17.13z"
				/>
		</g>
	</g>
</g>
</svg>
