<?xml version="1.0" encoding="utf-8"?>
<!-- Generator: Adobe Illustrator 25.2.0, SVG Export Plug-In . SVG Version: 6.00 Build 0)  -->
<svg version="1.1" id="Layer_1" xmlns="http://www.w3.org/2000/svg" xmlns:xlink="http://www.w3.org/1999/xlink" x="0px" y="0px"
	 viewBox="0 0 192 1244" style="enable-background:new 0 0 192 1244;" xml:space="preserve">
<style type="text/css">
	.st0{fill:#FFFFFF;}
</style>
<path fill="palevioletred" d="M104.08,267.93c-31.73-7.64-34.89-45.37-9.08-54.46c67.81-23.9,60.92-101.37,0.58-114.23
	c-23.1-4.92-17.46-46.28,10.79-46.27c17.96-0.48,15.49-26.7-0.07-27.43c-69.05,5.15-68.31,90.5-10.28,106.15
	c21.99,5.93,26.79,24.37,18.67,37.25c-7.57,11.99-19.38,13.2-30.53,17.95c-43.73,18.64-35.67,84.01-0.75,98.53
	c0.91,0.38,24.64,7.4,25.49,7.86c31.94,17.17-5.43,38.93-25.89,53.2c-25.28,17.63-19.46,64.87,3.48,78.37
	c34.69,20.42,38.32,60.38,5.23,78.25c-59.24,31.99-39.47,85.37,13.86,101.63c22.6,6.89,17.24,44.74-5.88,49.4
	c-73.28,14.78-48.61,97.55-10.91,112.06c1.58,0.61,6.63,3.66,8.91,5.53c19.15,15.67,1.1,25.41-6.72,31.3
	c-31.87,24.02-51.24,58.68-20.6,90.42c23.61,24.45,49.75,57,19.57,77.76c-33.11,22.77-42.43,60.52,8.23,91.51
	c57.69,35.29-6.59,43.63-32.2,78.77c-24,32.94-1.76,70.32,22.59,83.07c1.29,0.68,3.07,1.11,4.65,0.89
	c6.96-0.99,12.42-6.41,8.86-14.79c-0.62-1.46-5.52-6.34-5.78-6.64c-2.04-2.29-4.45-4.28-7.16-6.76
	c-11.68-10.7-12.36-29.42,0.91-46.53c11.31-14.58,15.58-16.49,25.93-22.23c22.48-12.46,36.23-48.26,13.77-64.03
	c-6.42-4.5-25.27-25.07-31.35-30.05c-35.86-29.38,22.96-48.47,26.57-76.7c7.75-60.58-48.64-61.4-40.92-105.41
	c3.52-20.09,28.2-33.06,39.03-45.4c20.35-23.18-0.17-45.89-13.79-55.05c-9.92-6.67-28.28-16.95-33.26-39.98
	c-2.94-13.58,4.56-25.8,18.06-30.05c55.15-17.35,67.24-88.48,10.22-106.3c-21.13-6.6-28.01-37.22-4.36-48.07
	c53.3-24.47,56.24-95.06,10.54-118.28c-11.64-5.92-17.57-26.02-8.24-40.53c13.54-21.06,38.1-11.58,41.34-49.09
	C145.81,293.76,136.64,275.77,104.08,267.93z"/>
<path class="st0" d="M77.05,55.26c4.8-1.53,8.34-6.02,12.76-8.53c4.68-2.66,9.68-4.29,14.96-5.28c7.06-1.33,4.07-12.1-2.97-10.78
	c-6.18,1.16-12.15,3.31-17.63,6.41c-4.88,2.76-11.31,6.64-13.1,12.2C69.96,52.75,73.59,56.36,77.05,55.26z"/>
<path class="st0" d="M83.14,355.3c-9.85,8.23-12.9,22.83-10.27,34.9c1.53,7.02,12.3,4.05,10.78-2.97
	c-2.02-9.28,1.28-17.22,7.22-24.2C95.44,357.63,88.54,350.78,83.14,355.3z"/>
<path class="st0" d="M129.84,598.83c-3.94-6.06-9.22-11.2-15.28-15.13c-2.02-1.31-3.86,1.89-1.88,3.21
	c5.54,3.68,10.2,8.52,13.86,14.06c1.8,2.73,3.39,5.64,4.6,8.68c0.61,1.54,1.15,3.11,1.61,4.71c0.47,1.65,0.7,3.39,1.25,5.01
	c0.63,1.86,3.59,1.65,3.54-0.48c-0.08-3.48-1.51-7.23-2.78-10.43C133.44,605.09,131.81,601.86,129.84,598.83z"/>
<path class="st0" d="M99.65,585.29c3.1,0,3.11-4.83,0-4.83C96.55,580.47,96.54,585.29,99.65,585.29z"/>
<path class="st0" d="M77.9,1192.63c-2-1.73-3.63-3.67-4.59-6.16c-1.14-2.98-0.54-6.43-3.07-8.73c-1.93-1.76-4.98-1.95-6.89,0
	c-3.39,3.45-1.79,8.74-0.11,12.71c1.59,3.77,3.96,7.12,7.1,9.75c2.22,1.85,5.39,2.17,7.57,0
	C79.83,1198.26,80.1,1194.52,77.9,1192.63z"/>
<path class="st0" d="M89.91,263.94c-0.63-0.4-1.28-0.8-1.9-1.22c-0.33-0.22-0.66-0.44-0.99-0.67c-0.17-0.12-0.33-0.23-0.49-0.35
	c-0.57-0.6-1.33-1.09-1.94-1.67c-0.62-0.58-1.21-1.18-1.78-1.81c-0.28-0.31-0.56-0.62-0.83-0.94c-0.13-0.16-0.26-0.32-0.39-0.48
	c-0.08-0.1-0.56-0.68-0.17-0.21s-0.08-0.11-0.15-0.21c-0.12-0.16-0.23-0.32-0.34-0.48c-0.22-0.31-0.43-0.63-0.63-0.96
	c-0.39-0.63-0.75-1.27-1.07-1.94c-0.79-1.65-3.28-2.22-4.78-1.25c-1.7,1.09-2.1,3.01-1.25,4.78c1.55,3.24,4,6.16,6.62,8.58
	c1.43,1.32,2.99,2.65,4.7,3.6c0.91,0.51,1.86,0.96,2.87,1.24c0.34,0.1,0.68,0.17,1.02,0.24c1.1,0.21,1.86,0.14,2.9-0.37
	c1.36-0.67,1.75-2.63,1.01-3.86C91.71,264.96,90.83,264.53,89.91,263.94z"/>
<path class="st0" d="M98.81,272.18c-1.94,0-1.94,3.02,0,3.02C100.75,275.19,100.76,272.18,98.81,272.18z"/>
<path class="st0" d="M110.95,937.56c-0.24-1.22-0.53-2.42-0.85-3.62c-0.78-2.91-1.79-5.74-2.98-8.51
	c-2.16-5.04-5.09-10.14-9.67-13.36c-1.02-0.72-2.56-0.18-3.15,0.83c-0.68,1.16-0.18,2.42,0.83,3.15c3.64,2.64,6.1,7.54,7.77,11.73
	c0.97,2.43,1.8,4.93,2.47,7.47c0.32,1.2,0.6,2.41,0.84,3.63c0.21,1.1,0.19,2.52,0.86,3.46c1.22,1.68,3.44,1.34,4.2-0.55
	C111.77,940.53,111.21,938.84,110.95,937.56z"/>
<path class="st0" d="M90.71,904.97c-1.94,0-1.94,3.02,0,3.02C92.65,907.98,92.66,904.97,90.71,904.97z"/>
<path class="st0" d="M126.81,147.13c0.42,3.68,0,7.5,1.09,11.06c1.21,3.96,6.88,4,8.08,0c2.49-8.37-0.35-19.31-5.49-26.12
	c-3.4-4.5-11.12-0.17-7.71,4.5C125.16,139.84,126.35,143.12,126.81,147.13z"/>
<path class="st0" d="M107.89,770.22c2.42,2.47,4.66,5.09,6.25,8.18c1.66,3.22,1.46,6.47,2.56,9.76c1.39,4.18,6.53,3.74,8.08,0
	c3.43-8.34-4.88-19.02-10.27-24.56C110.3,759.29,103.68,765.92,107.89,770.22z"/>
<path class="st0" d="M126.16,1096.75c-3.64,5.84-7.61,10.79-13.21,14.9c-4.32,3.17-0.12,10.47,4.24,7.25
	c6.35-4.68,12.83-10.64,16.05-18.01C135.3,1096.16,129.02,1092.15,126.16,1096.75z"/>
</svg>
