<?xml version="1.0" encoding="utf-8"?>
<!-- Generator: Adobe Illustrator 25.2.0, SVG Export Plug-In . SVG Version: 6.00 Build 0)  -->
<svg version="1.1" id="Layer_1" xmlns="http://www.w3.org/2000/svg" xmlns:xlink="http://www.w3.org/1999/xlink" x="0px" y="0px"
	 viewBox="0 0 192 1244" style="enable-background:new 0 0 192 1244;" xml:space="preserve">
<style type="text/css">
	.st0{fill:#FFFFFF;}
</style>
<path fill="palevioletred" d="M111.64,1069.48c59.38-30.73,48.98-79.03,11.63-103.35c-36.42-19.23-15.53-52,13.88-75.62
	c34.65-27.84,10.18-67.51-23.2-82.75c-24.7-11.27-36.43-43.18-8.17-51.26c55.28-15.79,66.15-78.71,5.1-105.88
	c-15.89-7.07-20.98-29.59-5.88-39.32c19.86-12.8,77.73-65.93,26.21-110.45c-36.85-20.49-38.91-48.28-0.89-73.11
	c39.95-26.1,17.42-63.75-11.93-81.24c-24.07-14.34-53.36-41.07-16.27-58.1c1.01-0.46,18.77-10.4,19.8-10.84
	c33.83-14.58,48.33-67.24-1.87-89.36c-18.33-8.08-17.8-5.88-26.69-17.92c-9.45-12.79,4.27-35.21,23.82-42.18
	c49.17-17.53,54.7-96.83-26.02-101.97c-18.19,0.73-21.08,26.86-0.08,27.38c44.27,1.1,34.16,42.81,8.62,50.18
	c-39.57,11.42-54.15,86.81,2.68,108.03c20.94,7.82,18.93,33.83,7.39,40.37c-33.82,19.16-48.78,39.79-46.18,65.54
	c3.79,37.44,21.78,41.37,44.33,55c16.69,10.09,10.54,27.26,1.37,32.46c-45.31,25.72-60.46,90.63-10.67,113.07
	c27.59,10.92,19.93,39.06,2.9,49.99c-54.03,34.68-33.93,85.94,3.95,113.11c13.09,9.39,23.03,29.08,9.94,37.98
	c-21.72,14.78-23.88,14.85-35.08,21.94c-32.45,20.53-8.88,65.8,11.04,81.93c11.82,9.57,27.43,17.47,26.83,37.32
	c-1.52,35.57-57.93,35.47-48.84,96.22c4.21,28.12,75,38.8,41.06,71.57c-6.31,6.09-25.13,20.5-32.47,25.51
	c-22,15.02-15.12,59.28,2.71,73.92c16.09,13.21,11.03,11.37,28.7,26.66c22.08,19.11,3.86,31.4-7.6,39.35
	c-11.93,8.29-1.71,32.58,18.19,22.67c35.72-17.8,40.5-48.61,18.36-72.22C121.42,1126.13,69.24,1097.84,111.64,1069.48z"/>
<path class="st0" d="M90.27,43.16c7.57,1.6,15.84-0.19,22.62,4.37c5.22,3.51,10.98-4.28,6.63-8.6c-3.03-3-7.04-4.13-11.11-4.99
	c-5.05-1.06-10.22-0.51-15.17-1.56C86.23,30.9,83.23,41.67,90.27,43.16z"/>
<path class="st0" d="M89.58,115.37c-3.05,1.46-5.53,5.02-7.68,7.54c-2.74,3.22-4.32,7.07-5.81,10.98c-0.99,2.61,1.1,5.66,3.61,6.35
	c2.98,0.82,5.27-1.02,6.35-3.61c1.04-2.49,2.41-4.79,4.28-6.74c1.37-1.43,3.11-4.1,4.87-4.92c2.72-1.28,3.42-5.18,2-7.61
	C95.57,114.59,92.3,114.07,89.58,115.37z"/>
<path class="st0" d="M132.47,369.87c-2.66,0.7-5.04,4.08-3.9,6.87c1.46,3.59,3.21,7.08,4.59,10.7c1.4,3.68,1.55,7.31,2.25,11.13
	c0.93,5.05,9.35,5.09,10.25,0c1.58-8.97-3.05-16.79-6.31-24.8C138.2,370.96,135.63,369.04,132.47,369.87z"/>
<path class="st0" d="M138.26,991.51c-3.23-3.93-11.21-0.9-9.7,5.18c1.83,7.35,1.94,18.17,11.57,19.25c2.36,0.26,4.83-1.92,5.39-4.1
	C147.14,1005.49,144,995.6,138.26,991.51z"/>
<path class="st0" d="M123.88,1183.23c-5.26,1.47-7.24,5.93-9.21,10.39c-3.73,0.86-6.36,3.57-7.26,7.29
	c-0.54,2.22,0.26,4.71,2.16,6.03c1.56,3.2,6.42,4.68,9.04,1.66c1.27-1.47,2.67-2.92,3.65-4.61c1.1-1.91,1.54-4.08,2.39-6.1
	c1.36-3.18,4.45-5.2,5.28-8.6C130.82,1185.69,127.59,1182.2,123.88,1183.23z"/>
<path class="st0" d="M95.58,274.03c-1.2-0.9-3.44-0.52-4.64,0.18c-1,0.58-1.81,1.53-2.65,2.32c-0.19,0.18-0.38,0.35-0.57,0.52
	c-0.14,0.12-0.74,0.7-0.17,0.15c-0.35,0.34-0.82,0.6-1.21,0.88c-1.03,0.75-2,1.53-2.91,2.43c-1.55,1.53-3.34,2.62-4.66,4.39
	c-0.64,0.86-1.14,1.8-1.59,2.78c-0.33,0.72-0.64,1.45-0.94,2.19c-0.09,0.2-0.17,0.41-0.26,0.61c0,0.01-0.15,0.36-0.22,0.5
	c-0.71,1.64-0.54,3.75,1.23,4.68c1.49,0.79,3.91,0.52,4.68-1.23c0.44-1,0.85-2.02,1.31-3.02c0.23-0.5,0.47-0.99,0.73-1.47
	c0.21-0.38,0.48-1.09,0.84-1.36c-0.07,0.09-0.14,0.19-0.21,0.28c0.08-0.1,0.17-0.19,0.26-0.29c0.14-0.15,0.29-0.3,0.44-0.44
	c0.33-0.31,0.68-0.6,1.03-0.87c0.73-0.58,1.48-1.13,2.15-1.78c0.37-0.36,0.73-0.71,1.12-1.05c0.03-0.03,0.04-0.04,0.07-0.06
	c0.18-0.13,0.36-0.26,0.54-0.39c0.98-0.71,1.98-1.4,2.89-2.2c0.69-0.61,1.33-1.26,2.02-1.88c0.7-0.63,1.75-1.96,1.92-2.94
	C96.99,275.68,96.58,274.78,95.58,274.03z"/>
<path class="st0" d="M123.43,899.85c0.87-1.11,1.78-2.19,2.77-3.2c1.13-1.15,2.26-2.24,3.17-3.59c0.14-0.21,0.26-0.42,0.4-0.63
	c0.02-0.04,0.06-0.08,0.09-0.12c1.02-0.89,1.72-2.39,1.28-3.75c-0.58-1.78-2.48-2.86-4.32-2.35c-1.28,0.35-2.14,1.34-2.87,2.38
	c-0.06,0.08-0.52,0.77-0.74,1.11c0.1-0.12,0.21-0.21-0.01,0.04c-0.01,0.01-0.02,0.03-0.04,0.04c-0.04,0.06-0.07,0.11-0.06,0.11
	c-0.01-0.01,0-0.03,0.01-0.05c-0.08,0.09-0.15,0.17-0.23,0.26c-0.27,0.29-0.55,0.57-0.83,0.85c-1,1-1.96,2.01-2.86,3.11
	c-0.26,0.32-0.52,0.65-0.78,0.97c-0.1,0.13-0.21,0.27-0.31,0.4c-0.58,0.76-0.73,0.94-0.43,0.55c0.17-0.22,0.16-0.21-0.04,0.04
	c-0.49,0.56-0.98,1.11-1.51,1.63c-1.18,1.16-2.45,2.21-3.66,3.33c-1.34,1.24-1.35,3.7,0,4.94c1.44,1.32,3.5,1.33,4.94,0
	c1.03-0.95,2.1-1.86,3.13-2.82c0.51-0.48,1.01-0.97,1.48-1.49c0.22-0.25,0.44-0.5,0.65-0.75
	C122.92,900.52,123.17,900.18,123.43,899.85C123.17,900.18,123.17,900.19,123.43,899.85z"/>
<path class="st0" d="M123.2,889.69c-0.04,0.05-0.08,0.09-0.1,0.13c0.02-0.02,0.03-0.04,0.05-0.06S123.18,889.72,123.2,889.69z"/>
<path class="st0" d="M134.46,879.84c-0.23-0.2-0.55-0.33-0.94-0.33c-1.75,0-1.92,2.44-0.51,2.93c0.23,0.2,0.55,0.33,0.94,0.33
	C135.69,882.76,135.86,880.32,134.46,879.84z"/>
<path class="st0" d="M99.33,271.45c0.21,0.21,0.47,0.36,0.76,0.44c0.41,0.22,0.85,0.31,1.32,0.3c0.3-0.04,0.61-0.08,0.91-0.12
	c0.27-0.12,0.55-0.23,0.82-0.35c0.4-0.22,0.72-0.51,0.96-0.89c0.07-0.07,0.11-0.16,0.17-0.24c0.02-0.01,0.04-0.03,0.05-0.04
	c0.43-0.44,0.73-0.95,0.9-1.54c0.04-0.13,0.09-0.26,0.13-0.39c0.17-0.62,0.17-1.24,0-1.85c-0.17-0.59-0.46-1.1-0.9-1.54
	c-0.43-0.43-0.95-0.73-1.54-0.9c-0.62-0.17-1.24-0.17-1.85,0c-0.17,0.05-0.35,0.14-0.5,0.21c-0.13,0.05-0.34,0.13-0.49,0.21
	c-0.02,0.01-0.05,0.03-0.07,0.05c-0.12,0.09-0.24,0.19-0.36,0.28s-0.24,0.19-0.36,0.28c-0.01,0.01-0.02,0.02-0.03,0.03
	c-0.02,0.02-0.04,0.04-0.06,0.06c-0.21,0.24-0.41,0.5-0.59,0.76c-0.03,0.05-0.06,0.09-0.08,0.14c-0.14,0.31-0.3,0.63-0.4,0.97
	c-0.02,0.06-0.03,0.12-0.04,0.18c-0.05,0.34-0.12,0.72-0.14,1.08c-0.02,0.37,0.05,0.74,0.15,1.09c0.12,0.27,0.23,0.55,0.35,0.82
	C98.66,270.89,98.96,271.21,99.33,271.45z"/>
<path class="st0" d="M111.08,513.25c-0.95,1.63-0.35,3.7,1.22,4.67c2.46,1.51,4.46,2.93,6.36,5.24c0.54,0.66,1.26,2.1,1.54,2.84
	c0.62,1.63,1.33,3.23,1.94,4.87c0.5,1.35,1.08,3.07,1.23,4.29c0.22,1.7,0.07,3.45,0,5.16c-0.07,1.75,0.03,3.48,0.01,5.22
	c-0.01,0.55-0.21,1.04-0.44,1.79c-0.33,1.11-0.4,2.12-0.15,3.26c0.62,2.79,4.48,3.01,5.87,0.77c2.15-3.49,1.41-7.62,1.53-11.49
	c0.07-2.11,0.11-4.17-0.22-6.26c-0.28-1.78-0.86-3.49-1.5-5.17c-1.34-3.47-2.48-7.05-4.87-9.96c-2.15-2.62-4.99-4.69-7.86-6.46
	C114.18,511.06,112,511.68,111.08,513.25z"/>
<path class="st0" d="M105.48,503.63c-0.32-0.41-0.42-0.6-0.97-0.89l-0.82-0.35c-0.23-0.07-0.46-0.11-0.69-0.12
	c-0.27-0.08-0.54-0.12-0.83-0.11c-0.48-0.02-0.93,0.08-1.35,0.3c-0.43,0.14-0.81,0.38-1.12,0.72c-0.18,0.24-0.36,0.47-0.55,0.71
	c-0.32,0.54-0.47,1.13-0.48,1.76c0.04,0.31,0.08,0.62,0.12,0.93c0.17,0.59,0.47,1.11,0.9,1.54c0.14,0.16,0.28,0.33,0.43,0.49
	c0.24,0.18,0.47,0.36,0.71,0.55c0.4,0.26,0.83,0.39,1.3,0.41c0.31,0.08,0.62,0.08,0.93,0c0.46-0.02,0.9-0.16,1.3-0.41
	c0.24-0.18,0.47-0.36,0.71-0.55c0.18-0.24,0.36-0.47,0.55-0.71c0.18-0.29,0.28-0.6,0.35-0.92c0.19-0.45,0.3-0.65,0.27-1.27
	l-0.12-0.92C105.99,504.35,105.78,503.96,105.48,503.63z"/>
<path class="st0" d="M143.22,708.12c6.52-14.14-3.98-30.12-14.07-39.43c-5.28-4.87-13.2,3.02-7.9,7.9
	c4.3,3.96,8.28,8.35,10.64,13.78c2.35,5.39,1.92,11.15,3.38,16.71C136.15,710.47,141.61,711.61,143.22,708.12z"/>
</svg>
