<?xml version="1.0" encoding="utf-8"?>
<!-- Generator: Adobe Adobe Illustrator 24.2.0, SVG Export Plug-In . SVG Version: 6.00 Build 0)  -->
<svg version="1.1" xmlns="http://www.w3.org/2000/svg" xmlns:xlink="http://www.w3.org/1999/xlink" x="0px" y="0px"
	 viewBox="0 0 900 1200" style="enable-background:new 0 0 900 1200;" xml:space="preserve">
<style type="text/css">
	.st0{clip-path:url(#SVGID_2_);}
	.st1{fill:none;stroke:#000000;stroke-width:20;stroke-miterlimit:10;}
	.st2{clip-path:url(#SVGID_4_);}
	.st3{fill:#FFFFFF;}
</style>
<g id="Layer_1">
	<g>
		<g>
			<defs>
				<rect id="SVGID_1_" x="6.42" y="2.96" width="446.86" height="1398"/>
			</defs>
			<clipPath id="SVGID_2_">
				<use xlink:href="#SVGID_1_"  style="overflow:visible;"/>
			</clipPath>
			<g class="st0">
				<g>
					<g>
						<g>
							<g>
								<path class="st1" d="M49.04,91.91c-18.02,0-32.62-17.95-32.62-40.09"/>
								<path class="st1" d="M16.42,53.05c0-22.14,14.6-40.09,32.62-40.09"/>
								<path class="st1" d="M82.59,129.53c0,22.14-14.6,40.09-32.62,40.09"/>
								<path class="st1" d="M48.57,91.91c23.81,0.7,34.02,19.44,34.02,38.24"/>
							</g>
							<g>
								<path class="st1" d="M50.9,248.57c-18.02,0-32.62-17.95-32.62-40.09"/>
								<path class="st1" d="M18.29,209.72c0-22.14,14.6-40.09,32.62-40.09"/>
								<path class="st1" d="M84.46,286.2c0,22.14-14.6,40.09-32.62,40.09"/>
								<path class="st1" d="M50.44,248.57c23.81,0.7,34.02,19.44,34.02,38.24"/>
							</g>
							<g>
								<path class="st1" d="M56.5,405.24c-18.02,0-32.62-17.95-32.62-40.09"/>
								<path class="st1" d="M23.88,366.38c0-22.14,14.6-40.09,32.62-40.09"/>
								<path class="st1" d="M90.05,442.86c0,22.14-14.6,40.09-32.62,40.09"/>
								<path class="st1" d="M56.03,405.24c23.81,0.7,34.02,19.44,34.02,38.24"/>
							</g>
							<g>
								<path class="st1" d="M58.36,561.9c-18.02,0-32.62-17.95-32.62-40.09"/>
								<path class="st1" d="M25.74,523.04c0-22.14,14.6-40.09,32.62-40.09"/>
								<path class="st1" d="M91.91,599.52c0,22.14-22.99,42.56-41.01,42.56"/>
								<path class="st1" d="M57.89,561.9c23.81,0.7,34.02,19.44,34.02,38.24"/>
							</g>
						</g>
						<g>
							<g>
								<path class="st1" d="M53.7,721.03c-18.02,0-32.62-17.95-32.62-40.09"/>
								<path class="st1" d="M21.08,682.17c0-22.14,14.6-40.09,32.62-40.09"/>
								<path class="st1" d="M87.25,758.66c0,22.14-14.6,40.09-32.62,40.09"/>
								<path class="st1" d="M53.23,721.03c23.81,0.7,34.02,19.44,34.02,38.24"/>
							</g>
							<g>
								<path class="st1" d="M55.56,877.69c-18.02,0-32.62-17.95-32.62-40.09"/>
								<path class="st1" d="M22.95,838.84c0-22.14,14.6-40.09,32.62-40.09"/>
								<path class="st1" d="M84.46,924.57c0,22.14-15.54,32.69-33.55,32.69"/>
								<path class="st1" d="M54.87,877.69c14.88,0.44,23.98,15.52,27.83,25.12c2.31,5.76,2.21,14.41,1.53,26.69"/>
							</g>
							<g>
								<path class="st1" d="M50.9,1031.89c-18.02,0-30.76-14.25-30.76-36.39"/>
								<path class="st1" d="M20.15,996.73c0-22.14,12.74-39.47,30.76-39.47"/>
								<path class="st1" d="M85.39,1071.36c0,22.14-14.6,41.94-32.62,41.94"/>
								<path class="st1" d="M50.21,1031.89c11.91-0.26,19.36,2.06,27.57,9.87c8.21,7.81,7.71,23.41,7.61,30.53"/>
							</g>
							<g>
								<path class="st1" d="M59.76,1191.02"/>
								<path class="st1" d="M63.02,1191.02c-18.02,0-32.62-17.95-32.62-40.09"/>
								<path class="st1" d="M30.4,1152.16c0-22.14,14.6-40.09,32.62-40.09"/>
							</g>
						</g>
					</g>
				</g>
				<line class="st1" x1="62.35" y1="1191.14" x2="472.42" y2="1191.7"/>
				<line class="st1" x1="47.44" y1="13.45" x2="457.51" y2="14"/>
			</g>
		</g>
		<g>
			<defs>
				<rect id="SVGID_3_" x="453.28" y="2.96" width="446.86" height="1398"/>
			</defs>
			<clipPath id="SVGID_4_">
				<use xlink:href="#SVGID_3_"  style="overflow:visible;"/>
			</clipPath>
			<g class="st2">
				<g>
					<g>
						<g>
							<g>
								<path class="st1" d="M857.51,91.91c18.02,0,32.62-17.95,32.62-40.09"/>
								<path class="st1" d="M890.13,53.05c0-22.14-14.6-40.09-32.62-40.09"/>
								<path class="st1" d="M823.96,129.53c0,22.14,14.6,40.09,32.62,40.09"/>
								<path class="st1" d="M857.98,91.91c-23.81,0.7-34.02,19.44-34.02,38.24"/>
							</g>
							<g>
								<path class="st1" d="M855.65,248.57c18.02,0,32.62-17.95,32.62-40.09"/>
								<path class="st1" d="M888.27,209.72c0-22.14-14.6-40.09-32.62-40.09"/>
								<path class="st1" d="M822.1,286.2c0,22.14,14.6,40.09,32.62,40.09"/>
								<path class="st1" d="M856.12,248.57c-23.81,0.7-34.02,19.44-34.02,38.24"/>
							</g>
							<g>
								<path class="st1" d="M850.06,405.24c18.02,0,32.62-17.95,32.62-40.09"/>
								<path class="st1" d="M882.68,366.38c0-22.14-14.6-40.09-32.62-40.09"/>
								<path class="st1" d="M816.51,442.86c0,22.14,14.6,40.09,32.62,40.09"/>
								<path class="st1" d="M850.52,405.24c-23.81,0.7-34.02,19.44-34.02,38.24"/>
							</g>
							<g>
								<path class="st1" d="M848.19,561.9c18.02,0,32.62-17.95,32.62-40.09"/>
								<path class="st1" d="M880.81,523.04c0-22.14-14.6-40.09-32.62-40.09"/>
								<path class="st1" d="M814.64,599.52c0,22.14,22.99,42.56,41.01,42.56"/>
								<path class="st1" d="M848.66,561.9c-23.81,0.7-34.02,19.44-34.02,38.24"/>
							</g>
						</g>
						<g>
							<g>
								<path class="st1" d="M852.85,721.03c18.02,0,32.62-17.95,32.62-40.09"/>
								<path class="st1" d="M885.47,682.17c0-22.14-14.6-40.09-32.62-40.09"/>
								<path class="st1" d="M819.3,758.66c0,22.14,14.6,40.09,32.62,40.09"/>
								<path class="st1" d="M853.32,721.03c-23.81,0.7-34.02,19.44-34.02,38.24"/>
							</g>
							<g>
								<path class="st1" d="M850.99,877.69c18.02,0,32.62-17.95,32.62-40.09"/>
								<path class="st1" d="M883.61,838.84c0-22.14-14.6-40.09-32.62-40.09"/>
								<path class="st1" d="M822.1,924.57c0,22.14,15.54,32.69,33.55,32.69"/>
								<path class="st1" d="M851.69,877.69c-14.88,0.44-23.98,15.52-27.83,25.12c-2.31,5.76-2.21,14.41-1.53,26.69"/>
							</g>
							<g>
								<path class="st1" d="M855.65,1031.89c18.02,0,30.76-14.25,30.76-36.39"/>
								<path class="st1" d="M886.41,996.73c0-22.14-12.74-39.47-30.76-39.47"/>
								<path class="st1" d="M821.17,1071.36c0,22.14,14.6,41.94,32.62,41.94"/>
								<path class="st1" d="M856.35,1031.89c-11.91-0.26-19.36,2.06-27.57,9.87c-8.21,7.81-7.71,23.41-7.61,30.53"/>
							</g>
							<g>
								<path class="st1" d="M846.8,1191.02"/>
								<path class="st1" d="M843.53,1191.02c18.02,0,32.62-17.95,32.62-40.09"/>
								<path class="st1" d="M876.15,1152.16c0-22.14-14.6-40.09-32.62-40.09"/>
							</g>
						</g>
					</g>
				</g>
				<line class="st1" x1="844.21" y1="1191.14" x2="434.13" y2="1191.7"/>
				<line class="st1" x1="859.12" y1="13.45" x2="449.05" y2="14"/>
			</g>
		</g>
	</g>
	<path class="st3" d="M87.45,113.58c-0.45-3.61-2.42-6.51-4.35-9.54c-1.83-2.88-3.84-5.62-5.97-8.29c-1.88-2.36-5.94-1.97-7.9,0
		c-2.33,2.33-1.89,5.54,0,7.9c1.63,2.05,3.1,4.24,4.49,6.45c1.48,2.35,2.64,5.38,4.77,7.19c1.63,1.39,3.69,1.99,5.74,1.09
		C85.94,117.62,87.7,115.63,87.45,113.58z"/>
	<path class="st3" d="M38.51,8.26c-2.26,1.3-4.44,2.72-6.64,4.12c-2.73,1.74-5.47,2.88-6.54,6.2c-0.81,2.48,0.94,5.62,3.51,6.18
		c3.53,0.77,5.82-0.99,8.61-2.84c2.18-1.44,4.34-2.89,6.58-4.23C50.05,14.1,44.62,4.75,38.51,8.26z"/>
	<path class="st3" d="M859.29,8.03H680.98c-5.15,0-5.16,8,0,8h178.32C864.44,16.03,864.45,8.03,859.29,8.03z"/>
	<path class="st3" d="M835.67,99.05c-3.3,0.57-5.91,4.25-7.53,6.96c-1.8,2.99-2.95,6.33-3.67,9.74c-1.01,4.8,6.34,6.86,7.38,2.03
		c0.57-2.63,1.32-5.2,2.74-7.51c1.41-2.3,3.87-3.55,5.25-5.8C841.66,101.49,838.66,98.53,835.67,99.05z"/>
	<path class="st3" d="M880.53,232.56c-0.65-1.42-2.36-1.73-3.71-1.51c-2.21,0.35-3.19,2.71-4.38,3.99c-1.22,1.31-2.17,2-3.79,2.9
		c-1.84,1.02-2.44,3.54-1.39,5.32c1.08,1.84,3.48,2.43,5.32,1.39c2.02-1.13,3.93-2.58,5.48-4.3
		C880.05,238.13,881.93,235.6,880.53,232.56z"/>
	<path class="st3" d="M830.6,406.61c-1.96,1.27-3.57,2.91-5.23,4.55c-1.46,1.45-1.56,4.13,0,5.57c1.57,1.44,4.02,1.56,5.57,0
		c1.64-1.65,3.27-3.26,4.55-5.23C837.42,408.53,833.57,404.68,830.6,406.61z"/>
	<path class="st3" d="M861.34,559.25c-0.24-1.78-1.69-2.97-3.46-3.06c-2.2-0.11-4.27,0.54-6.14,1.7c-1.66,1.04-2.46,3.39-1.35,5.13
		c1.07,1.65,3.36,2.47,5.13,1.35c0.32-0.21,0.66-0.38,0.99-0.57c0.09-0.03,0.19-0.07,0.28-0.1c0.67-0.21,1.33-0.45,2.02-0.59
		C860.53,562.76,861.56,560.87,861.34,559.25z"/>
	<path class="st3" d="M835.71,723.29c-1.85,0.55-3.13,2.08-4.58,3.29c-0.13,0.11-0.17,0.15-0.17,0.16c-0.07,0.05-0.15,0.1-0.25,0.18
		c-0.32,0.22-0.64,0.44-0.98,0.64c-0.74,0.45-1.5,0.83-2.29,1.18c-2.09,0.92-2.58,3.97-1.52,5.78c1.25,2.14,3.69,2.45,5.78,1.52
		c3.42-1.53,8.76-4.99,8.49-9.31C840.06,724.47,838.03,722.59,835.71,723.29z"/>
	<path class="st3" d="M862.71,864.57c-2.75,2.7-4.64,5.3-8.16,7.17c-3.31,1.76-6.88,2.98-10.33,4.43c-4.09,1.72-2.3,8.49,1.86,6.75
		c7.41-3.11,19.63-6.3,21.94-15.27C868.81,864.59,864.99,862.34,862.71,864.57z"/>
	<path class="st3" d="M78.96,289.48c0.01,2.76-0.57,5.44-1.56,8.02c-1.04,2.72-3,5.08-2.97,8.11c0.03,3.22,2.99,5.21,6,4.57
		c4.28-0.91,6.19-5.59,7.59-9.25c1.38-3.62,2.14-7.57,2.12-11.45C90.1,282.29,78.93,282.28,78.96,289.48z"/>
	<path class="st3" d="M75.88,408.52c-1.5-4.2-5.89-5.86-9.71-7.4c-2.46-0.99-5.67,1.08-6.23,3.54c-0.66,2.91,0.89,5.2,3.54,6.23
		c2.01,0.78,5.53,3.08,8.52,2.73C74.37,413.34,76.85,411.24,75.88,408.52z"/>
	<path class="st3" d="M81.82,569.07c-1.52-5.93-7.76-9.55-13.08-11.53c-2.33-0.87-5.04,0.97-5.66,3.21
		c-0.7,2.56,0.87,4.81,3.21,5.66c4.03,1.47,6.63,4.56,10.12,6.81C79.19,575,82.58,572.06,81.82,569.07z"/>
	<path class="st3" d="M29.91,659.36c-1.31-2.2-4.77-2.91-6.6-0.85c-1.04,1.18-1.56,2.48-1.99,3.97c-0.07,0.23-0.14,0.46-0.22,0.69
		c-0.02,0.05-0.1,0.23-0.15,0.35c-0.04,0.08-0.08,0.15-0.09,0.18c-0.14,0.27-0.29,0.52-0.44,0.78c-1.26,2.12-0.55,5.26,1.69,6.45
		c2.27,1.2,5.1,0.57,6.45-1.69C30.25,666.39,31.76,662.47,29.91,659.36z"/>
	<path class="st3" d="M89.06,754.03c-1.57-0.43-3.04,0.33-3.94,1.6c-1.4,2-1.99,4.65-2.58,6.99c-0.5,2,0.64,4.36,2.75,4.84
		c2.04,0.46,4.31-0.61,4.84-2.75c0.59-2.39,1.45-4.84,1.48-7.32C91.64,755.86,90.52,754.43,89.06,754.03z"/>
	<path class="st3" d="M64,877.91c-3.92-2.04-8.37-2.91-12.4-4.74c-1.96-0.89-4.29-0.56-5.46,1.43c-1.02,1.75-0.52,4.51,1.43,5.46
		c4.54,2.2,9.49,4.31,14.56,4.73C65.79,885.08,67.15,879.55,64,877.91z"/>
	<path class="st3" d="M55.43,954.45c-3.89-1.13-8.34-0.86-12.36-0.98c-5.66-0.16-5.67,8.96,0,8.8c4.02-0.12,8.46,0.15,12.36-0.98
		C58.8,960.32,58.81,955.43,55.43,954.45z"/>
	<path class="st3" d="M89.04,1059.62c-0.98-4.63-3.5-8.89-6.32-12.63c-3.76-4.99-10.74,0.27-6.85,5.29
		c2.47,3.18,4.31,6.79,6.41,10.2C84.52,1066.11,89.89,1063.7,89.04,1059.62z"/>
	<path class="st3" d="M50.32,1178.87c-2.05-1.04-3.19-1.84-4.49-3.24c-0.11-0.12-0.38-0.45-0.47-0.55
		c-0.28-0.37-0.56-0.76-0.81-1.15c-0.3-0.47-0.56-0.95-0.81-1.44c-0.1-0.19-0.15-0.28-0.18-0.32c0.01-0.01-0.01-0.1-0.14-0.48
		c-0.99-2.76-3.71-4.62-6.69-3.8c-2.67,0.74-4.79,3.91-3.8,6.69c2.3,6.45,6.94,11.36,13.78,12.85c2.27,0.49,4.62-0.49,5.52-2.71
		C53.06,1182.66,52.43,1179.94,50.32,1178.87z"/>
	<path class="st3" d="M854.65,1028.75c-6.34-1.11-15.13,2.36-20.91,4.99c-7.05,3.21-11.52,8.64-14.28,15.79
		c-2.27,5.87,7.12,8.35,9.4,2.59c2.27-5.73,6.41-8.54,12.12-10.28c4.96-1.51,11.94-1.89,15.57-5.92
		C858.51,1033.74,858.04,1029.34,854.65,1028.75z"/>
	<path class="st3" d="M148.78,1188.47c-14.72-0.93-29.49-1.49-44.23-1.97c-13.27-0.42-27.05,2.64-40.1-0.62
		c-5.57-1.39-7.94,7.17-2.37,8.61c13.44,3.47,26.96,0.59,40.56,0.16c15.38-0.49,30.79,0.69,46.14-0.6
		C152.34,1193.75,152.39,1188.7,148.78,1188.47z"/>
</g>
<g id="Layer_3">
</g>
<g id="Layer_2">
</g>
</svg>
